<svg xmlns="http://www.w3.org/2000/svg" viewBox="0 0 128 128">
  <defs>
    <linearGradient id="bg" x1="12" y1="8" x2="112" y2="120" gradientUnits="userSpaceOnUse">
      <stop offset="0" stop-color="#62a0ea"/>
      <stop offset="0.52" stop-color="#26a269"/>
      <stop offset="1" stop-color="#e5a50a"/>
    </linearGradient>
    <filter id="shadow" x="-20%" y="-20%" width="140%" height="140%">
      <feDropShadow dx="0" dy="4" stdDeviation="5" flood-color="#000000" flood-opacity="0.25"/>
    </filter>
  </defs>
  <rect x="8" y="8" width="112" height="112" rx="28" fill="url(#bg)"/>
  <g filter="url(#shadow)">
    <circle cx="64" cy="64" r="38" fill="#ffffff" opacity="0.92"/>
    <circle cx="64" cy="64" r="11" fill="#241f31" opacity="0.18"/>
    <path d="M59 47c0-4 4-7 8-5l22 12c5 3 5 9 0 12L67 79c-4 2-8-1-8-5z" fill="#241f31"/>
  </g>
  <g fill="none" stroke="#ffffff" stroke-linecap="round" opacity="0.82">
    <path d="M27 51c5-7 12-11 20-12" stroke-width="5"/>
    <path d="M30 76c6 7 14 11 24 12" stroke-width="5"/>
    <path d="M82 39c8 2 15 7 20 14" stroke-width="5"/>
    <path d="M78 88c10-2 18-7 23-15" stroke-width="5"/>
  </g>
</svg>
